<?xml version="1.0" encoding="UTF-8"?><svg width="24" height="24" viewBox="0 0 48 48" fill="none" xmlns="http://www.w3.org/2000/svg"><path d="M24 40H7C5.34315 40 4 38.6569 4 37V11C4 9.34315 5.34315 8 7 8H41C42.6569 8 44 9.34315 44 11V23.0588" stroke="#FF0909" stroke-width="2" stroke-linecap="round" stroke-linejoin="round"/><path d="M4 11C4 9.34315 5.34315 8 7 8H41C42.6569 8 44 9.34315 44 11V20H4V11Z" fill="#2F88FF" stroke="#FF0909" stroke-width="2"/><circle r="2" transform="matrix(-1.31134e-07 -1 -1 1.31134e-07 10 14)" fill="#FF0909"/><circle r="2" transform="matrix(-1.31134e-07 -1 -1 1.31134e-07 16 14)" fill="#FF0909"/><circle cx="37" cy="34" r="3" stroke="#FF0909" stroke-width="2"/><path d="M37 41V37" stroke="#FF0909" stroke-width="2" stroke-linecap="round" stroke-linejoin="round"/><path d="M37 31V27" stroke="#FF0909" stroke-width="2" stroke-linecap="round" stroke-linejoin="round"/><path d="M30.9378 37.5L34.4019 35.5" stroke="#FF0909" stroke-width="2" stroke-linecap="round" stroke-linejoin="round"/><path d="M39.5979 32.5L43.062 30.5" stroke="#FF0909" stroke-width="2" stroke-linecap="round" stroke-linejoin="round"/><path d="M30.9378 30.5L34.4019 32.5" stroke="#FF0909" stroke-width="2" stroke-linecap="round" stroke-linejoin="round"/><path d="M39.5979 35.5L43.062 37.5" stroke="#FF0909" stroke-width="2" stroke-linecap="round" stroke-linejoin="round"/></svg>